<svg xmlns="http://www.w3.org/2000/svg" width="58.422" height="85.001" viewBox="0 0 57.422 84.001">
  <path id="Union_18" data-name="Union 18" d="M-5899.972-1665.6c0-1.655,2.525-3.217,6.927-4.286-3.082,1.131-4.923,2.5-4.923,3.663,0,1.186,1.888,2.316,5.313,3.179a52.432,52.432,0,0,0,12.154,1.317,52.436,52.436,0,0,0,12.156-1.317c3.427-.863,5.313-1.993,5.313-3.179,0-1.161-1.839-2.53-4.922-3.661,4.4,1.068,6.926,2.629,6.926,4.284,0,3.089-8.735,5.6-19.473,5.6S-5899.972-1662.513-5899.972-1665.6Zm6.973-1.794c0-.55.494-1.1,1.43-1.581a14.83,14.83,0,0,1,3.812-1.186c-2.063.7-3.346,1.609-3.346,2.389,0,1.5,4.757,2.727,10.6,2.727s10.6-1.224,10.6-2.727c0-.779-1.282-1.694-3.344-2.389a14.826,14.826,0,0,1,3.81,1.186c.936.484,1.431,1.031,1.431,1.581,0,1.873-5.607,3.4-12.5,3.4S-5893-1665.524-5893-1667.4Zm12.994-.231-23.161-30.31a28.854,28.854,0,0,1-1.962-2.944,28.7,28.7,0,0,1-3.872-14.407A28.744,28.744,0,0,1-5880.29-1744a28.744,28.744,0,0,1,28.711,28.712,28.693,28.693,0,0,1-3.872,14.407,28.99,28.99,0,0,1-1.962,2.944l-22.591,30.31h0Zm9.462-53.759v17.96h4.753v-20.366l-.323-.222c-3.181-2.192-6.386-4.406-9.483-6.547l-.293-.2-1.032-.713-.539-.371-2.5-1.726-.44-.3-.437.3-.214.148c-4.216,2.914-8.994,6.218-13.627,9.411l-.322.222v9.156h4.751v-6.75c2.928-2.023,6.387-4.413,9.85-6.811Zm-24.457,17.95h10.713a8,8,0,0,0,2.52-.381,5.4,5.4,0,0,0,2.057-1.2,5.418,5.418,0,0,0,1.323-2l.022-.062a7.329,7.329,0,0,0,.433-2.652v-10.845h-5.087v10.691a2.183,2.183,0,0,1-.365,1.447l-.006.007a1.211,1.211,0,0,1-.989.357h-5.87v-3.151H-5895Z" transform="translate(5909 1744.001)" fill="#2a45ed"/>
</svg>
