<?xml version="1.0" encoding="UTF-8"?>
<svg version="1.1" xmlns="http://www.w3.org/2000/svg" width="120" height="120">
<path d="M0 0 C39.6 0 79.2 0 120 0 C120 39.6 120 79.2 120 120 C80.4 120 40.8 120 0 120 C0 80.4 0 40.8 0 0 Z " fill="#FDFDFE" transform="translate(0,0)"/>
<path d="M0 0 C8.85552662 5.55905309 14.87098849 12.38153166 17.9140625 22.453125 C19.72286294 31.60458072 17.89685139 40.76131528 12.87109375 48.57421875 C11.70454169 50.21432165 10.51314967 51.83682107 9.30859375 53.44921875 C8.88900391 54.01382813 8.46941406 54.5784375 8.03710938 55.16015625 C5.53748391 58.52088003 3.02086606 61.86812504 0.4921875 65.20703125 C-1.65579021 68.05209599 -3.76454125 70.92071346 -5.84375 73.81640625 C-6.34366455 74.51040527 -6.8435791 75.2044043 -7.35864258 75.91943359 C-8.31560488 77.25190463 -9.26744818 78.58807004 -10.21362305 79.92822266 C-11.32482978 81.47099642 -12.5021164 82.96580345 -13.69140625 84.44921875 C-14.35140625 84.44921875 -15.01140625 84.44921875 -15.69140625 84.44921875 C-17.52255567 82.19407836 -19.2416199 79.92608656 -20.94140625 77.57421875 C-24.36604735 72.90199586 -27.81078001 68.26100769 -31.421875 63.73046875 C-32.0396582 62.95300293 -32.65744141 62.17553711 -33.29394531 61.37451172 C-34.48314535 59.88373966 -35.67873657 58.39803466 -36.88183594 56.91845703 C-45.32925315 46.274515 -48.47812496 37.03124926 -47.69140625 23.44921875 C-46.37196554 15.37521 -41.744501 8.69724674 -35.41015625 3.62109375 C-25.06017248 -3.48589511 -11.68967568 -5.61814092 0 0 Z " fill="#253B6B" transform="translate(74.69140625,14.55078125)"/>
<path d="M0 0 C6.16424416 2.31690556 12.61118887 5.11783125 16.265625 10.8515625 C18.03798948 18.33785847 17.12730677 26.27823194 16.265625 33.8515625 C14.615625 33.8515625 12.965625 33.8515625 11.265625 33.8515625 C11.29088257 32.99776001 11.29088257 32.99776001 11.31665039 32.12670898 C11.88377931 21.03599745 11.88377931 21.03599745 8.37109375 10.89453125 C5.96581363 8.93600299 4.27213878 7.63713545 1.265625 6.8515625 C-3.20970438 8.12730426 -7.49250509 10.47861969 -10.734375 13.8515625 C-11.78592773 17.52582347 -11.78592773 17.52582347 -11.734375 20.8515625 C-13.384375 20.8515625 -15.034375 20.8515625 -16.734375 20.8515625 C-17.54080041 17.27491647 -17.72495793 14.40484752 -16.734375 10.8515625 C-13.11648047 7.18961446 -9.1108699 4.57002787 -4.734375 1.8515625 C-1.734375 -0.1484375 -1.734375 -0.1484375 0 0 Z " fill="#F5F6F8" transform="translate(59.734375,29.1484375)"/>
<path d="M0 0 C0.928125 0.20625 1.85625 0.4125 2.8125 0.625 C2.8125 1.615 2.8125 2.605 2.8125 3.625 C10.4025 3.625 17.9925 3.625 25.8125 3.625 C25.8125 2.635 25.8125 1.645 25.8125 0.625 C26.8025 0.955 27.7925 1.285 28.8125 1.625 C28.4825 2.615 28.1525 3.605 27.8125 4.625 C25.74609375 5.57421875 25.74609375 5.57421875 23.25 6.3125 C22.01056641 6.68955078 22.01056641 6.68955078 20.74609375 7.07421875 C20.10800781 7.25597656 19.46992187 7.43773438 18.8125 7.625 C24.00459404 7.83692221 27.939239 7.2162689 32.8125 5.625 C32.3175 3.15 32.3175 3.15 31.8125 0.625 C33.1325 1.285 34.4525 1.945 35.8125 2.625 C35.8125 3.945 35.8125 5.265 35.8125 6.625 C29.28238775 11.52258419 22.31512269 10.80803166 14.5 10.8125 C13.38431641 10.82474609 12.26863281 10.83699219 11.11914062 10.84960938 C-2.50619152 10.87383937 -2.50619152 10.87383937 -7.125 7 C-7.6509375 6.319375 -7.6509375 6.319375 -8.1875 5.625 C-6.37307853 1.43787353 -4.89236161 -0.57557195 0 0 Z " fill="#EDEFF3" transform="translate(45.1875,97.375)"/>
<path d="M0 0 C1.65 0 3.3 0 5 0 C5.13526616 2.5850867 5.23417653 5.16308752 5.3125 7.75 C5.35439453 8.47960938 5.39628906 9.20921875 5.43945312 9.9609375 C5.52405754 13.68353167 5.33638117 15.59226525 2.9375 18.5 C-0.72185531 20.36860697 -3.22393367 20.4028436 -7.3125 20.25 C-8.56675781 20.21390625 -9.82101563 20.1778125 -11.11328125 20.140625 C-12.06589844 20.09421875 -13.01851562 20.0478125 -14 20 C-14 17.03 -14 14.06 -14 11 C-12.35 11 -10.7 11 -9 11 C-9 11.99 -9 12.98 -9 14 C-6.03 14 -3.06 14 0 14 C0 9.38 0 4.76 0 0 Z " fill="#F3F4F7" transform="translate(57,44)"/>
<path d="M0 0 C0.66 0.33 1.32 0.66 2 1 C1.67 2.32 1.34 3.64 1 5 C7.20647069 7.19667221 12.95441799 7.30028616 19.5 7.25 C21.01013672 7.26160156 21.01013672 7.26160156 22.55078125 7.2734375 C28.09347516 7.25890881 32.76622337 6.85240409 38 5 C37.505 2.525 37.505 2.525 37 0 C38.32 0.66 39.64 1.32 41 2 C41 3.32 41 4.64 41 6 C34.46988775 10.89758419 27.50262269 10.18303166 19.6875 10.1875 C18.57181641 10.19974609 17.45613281 10.21199219 16.30664062 10.22460938 C2.68130848 10.24883937 2.68130848 10.24883937 -1.9375 6.375 C-2.4634375 5.694375 -2.4634375 5.694375 -3 5 C-1.125 1.125 -1.125 1.125 0 0 Z " fill="#40547F" transform="translate(40,98)"/>
<path d="M0 0 C0.99 0 1.98 0 3 0 C5 3 5 3 4.625 5.1875 C4.41875 5.785625 4.2125 6.38375 4 7 C-1.47059581 8.84532714 -6.18819928 9.25309068 -11.9375 9.125 C-12.71673828 9.11597656 -13.49597656 9.10695313 -14.29882812 9.09765625 C-16.19935447 9.07433691 -18.09972008 9.03847586 -20 9 C-20 8.67 -20 8.34 -20 8 C-19.04738281 7.87882812 -18.09476563 7.75765625 -17.11328125 7.6328125 C-15.85902344 7.46523437 -14.60476562 7.29765625 -13.3125 7.125 C-11.45044922 6.88136719 -11.45044922 6.88136719 -9.55078125 6.6328125 C-6.40014308 6.07131263 -3.84613782 5.44430875 -1 4 C-0.11306697 1.95894361 -0.11306697 1.95894361 0 0 Z " fill="#F1F2F5" transform="translate(74,97)"/>
<path d="M0 0 C0.66 0 1.32 0 2 0 C2 0.99 2 1.98 2 3 C9.59 3 17.18 3 25 3 C25 2.01 25 1.02 25 0 C25.99 0.33 26.98 0.66 28 1 C27 4 27 4 24.9296875 5.16796875 C21.30023224 6.19873404 17.86590985 6.32998089 14.125 6.3125 C13.44308594 6.32861328 12.76117188 6.34472656 12.05859375 6.36132812 C7.01269757 6.36613374 3.51975673 5.2362765 -1 3 C-0.67 2.01 -0.34 1.02 0 0 Z " fill="#7E8CA9" transform="translate(46,98)"/>
<path d="M0 0 C0.66 0.33 1.32 0.66 2 1 C1.67 2.32 1.34 3.64 1 5 C6.37578685 6.75623315 11.30110255 7.39316874 16.9375 7.625 C17.71673828 7.66367188 18.49597656 7.70234375 19.29882812 7.7421875 C21.19887379 7.83544127 23.09940278 7.91875962 25 8 C25 8.33 25 8.66 25 9 C22.14630381 9.22346404 19.29311502 9.42913552 16.4375 9.625 C15.23770508 9.72167969 15.23770508 9.72167969 14.01367188 9.8203125 C8.26157054 10.19595993 2.70632988 10.26982506 -1.9375 6.375 C-2.4634375 5.694375 -2.4634375 5.694375 -3 5 C-1.125 1.125 -1.125 1.125 0 0 Z " fill="#5D6E92" transform="translate(40,98)"/>
<path d="M0 0 C0.66 0 1.32 0 2 0 C2 0.99 2 1.98 2 3 C7.28 3.66 12.56 4.32 18 5 C18 5.33 18 5.66 18 6 C10.90370975 6.31461385 5.31715405 6.44572039 -1 3 C-0.67 2.01 -0.34 1.02 0 0 Z " fill="#5D6E93" transform="translate(46,98)"/>
<path d="M0 0 C0.66 0.33 1.32 0.66 2 1 C-1.63 4.63 -5.26 8.26 -9 12 C-9 7.8407692 -6.75316432 5.85455565 -4 3 C-1.6875 1.125 -1.6875 1.125 0 0 Z " fill="#3F537E" transform="translate(42,16)"/>
<path d="M0 0 C6.93 0.495 6.93 0.495 14 1 C14 1.33 14 1.66 14 2 C6.08 2.495 6.08 2.495 -2 3 C-1.34 2.67 -0.68 2.34 0 2 C0 1.34 0 0.68 0 0 Z " fill="#E6E8ED" transform="translate(50,103)"/>
</svg>
