<svg width="45" height="67" viewBox="0 0 45 67" fill="none" xmlns="http://www.w3.org/2000/svg">
<path d="M7.0508 61.6366C7.0508 60.3252 9.02502 59.1201 12.4623 58.2695C10.0474 59.1556 8.6196 60.2366 8.6196 61.1404C8.6196 62.0797 10.1003 62.9481 12.7796 63.6392C15.8996 64.3658 19.0724 64.7025 22.2805 64.6671C25.4886 64.7025 28.6615 64.3481 31.7815 63.6392C34.4608 62.9658 35.9414 62.062 35.9414 61.1404C35.9414 60.2366 34.496 59.1556 32.0988 58.2695C35.536 59.1024 37.5102 60.3429 37.5102 61.6366C37.5102 64.0645 30.671 66.0494 22.2805 66.0494C13.8901 66.0494 7.0508 64.0468 7.0508 61.6366ZM12.5152 60.2189C12.5152 59.7758 12.903 59.3505 13.6257 58.9784C14.5775 58.5353 15.5646 58.2341 16.6046 58.0391C15.0006 58.5885 13.9782 59.2974 13.9782 59.9176C13.9782 61.0873 17.6975 62.062 22.2629 62.062C26.8283 62.062 30.5476 61.105 30.5476 59.9176C30.5476 59.3151 29.5428 58.5885 27.9212 58.0391C28.9435 58.2163 29.9483 58.5176 30.9001 58.9784C31.6405 59.3682 32.0106 59.7936 32.0106 60.2189C32.0106 61.6898 27.6215 62.8949 22.2453 62.8949C16.869 62.8949 12.5152 61.6898 12.5152 60.2189ZM22.6859 60.0239L4.56539 36.2058C4.00133 35.4614 3.49014 34.6817 3.03184 33.9019C1.03999 30.4639 0 26.5474 0 22.5777C0 16.6054 2.36202 10.8635 6.57487 6.61024C10.7877 2.37472 16.4812 0 22.4568 0C28.3971 0 34.1082 2.37472 38.3387 6.61024C42.5516 10.8458 44.9136 16.5699 44.9136 22.5777C44.9136 26.5651 43.8736 30.4639 41.8817 33.9019C41.4234 34.7171 40.9123 35.4792 40.3482 36.2058L22.6859 60.0239ZM30.0717 21.3017V35.426H33.791V19.4232L33.5442 19.2459C31.0588 17.5092 28.5557 15.7902 26.1232 14.1066L25.8941 13.9471L25.0832 13.38L24.6602 13.0787L22.7036 11.7141L22.3687 11.466L22.0337 11.7141L21.8575 11.8205C18.5612 14.1243 14.8243 16.7117 11.1931 19.2105L10.9464 19.3877V26.5828H14.6657V21.284C16.9572 19.689 19.6541 17.8105 22.3687 15.932L30.0717 21.3017ZM10.9464 35.426H19.3192C19.989 35.426 20.6588 35.3197 21.2934 35.1247C21.8927 34.9475 22.4568 34.6108 22.8975 34.1677C23.3558 33.7247 23.7083 33.1931 23.9198 32.5905L23.9375 32.5551C24.1842 31.8816 24.29 31.1728 24.2724 30.4639V21.9397H20.2887V30.3575C20.3239 30.7474 20.2358 31.1728 20.0066 31.4917C19.9009 31.5981 19.7775 31.669 19.6541 31.7221C19.5131 31.7576 19.3721 31.793 19.2311 31.7753H14.6304V29.2942H10.9111L10.9464 35.426Z" fill="#153568"/>
</svg>
